<svg width="247" height="99" viewBox="0 0 247 99" fill="none" xmlns="http://www.w3.org/2000/svg">
<rect width="247" height="99" rx="10" fill="url(#paint0_linear_1553_16131)"/>
<path d="M116.522 50.4732H112.311C112.201 50.4732 112.147 50.4127 112.147 50.2916V29.0793H107.297C107.176 29.0793 107.115 29.0188 107.115 28.8977L107.151 24.7388C107.151 24.6419 107.2 24.5935 107.297 24.5935H121.481C121.614 24.5935 121.681 24.6419 121.681 24.7388V28.8977C121.681 29.0188 121.633 29.0793 121.535 29.0793H116.631L116.668 50.2916C116.668 50.4127 116.619 50.4732 116.522 50.4732Z" fill="#004AAD"/>
<path d="M137.585 50.4732H125.517C125.42 50.4732 125.371 50.4127 125.371 50.2916L125.408 24.7388C125.408 24.6419 125.456 24.5935 125.553 24.5935H137.549C137.646 24.5935 137.695 24.654 137.695 24.7751V28.934C137.695 29.0309 137.646 29.0793 137.549 29.0793H129.892V34.8909H137.549C137.646 34.8909 137.695 34.9393 137.695 35.0362L137.731 39.2496C137.731 39.3465 137.683 39.3949 137.585 39.3949H129.892V45.8966H137.585C137.683 45.8966 137.731 45.9571 137.731 46.0782V50.3279C137.731 50.4248 137.683 50.4732 137.585 50.4732Z" fill="#004AAD"/>
<path d="M149.789 50.8365C148.44 50.8365 147.206 50.4975 146.088 49.8194C144.982 49.1414 144.101 48.2334 143.445 47.0953C142.801 45.945 142.479 44.6677 142.479 43.2632L142.515 31.6582C142.515 30.278 142.831 29.0309 143.463 27.917C144.095 26.791 144.964 25.889 146.07 25.211C147.188 24.5208 148.428 24.1758 149.789 24.1758C151.175 24.1758 152.408 24.5087 153.49 25.1746C154.584 25.8406 155.453 26.7426 156.097 27.8807C156.753 29.0067 157.081 30.2658 157.081 31.6582V33.3654C157.081 33.4622 157.033 33.5107 156.935 33.5107H152.742C152.645 33.5107 152.597 33.4622 152.597 33.3654V31.6582C152.597 30.8349 152.329 30.1266 151.794 29.5333C151.26 28.9401 150.591 28.6434 149.789 28.6434C148.902 28.6434 148.221 28.9461 147.747 29.5515C147.273 30.1569 147.036 30.8591 147.036 31.6582V43.2632C147.036 44.1713 147.304 44.9159 147.838 45.4971C148.373 46.0661 149.023 46.3506 149.789 46.3506C150.591 46.3506 151.26 46.0358 151.794 45.4063C152.329 44.7646 152.597 44.0502 152.597 43.2632V41.5379C152.597 41.4411 152.645 41.3926 152.742 41.3926H156.972C157.069 41.3926 157.118 41.4411 157.118 41.5379V43.2632C157.118 44.6556 156.79 45.9269 156.133 47.0771C155.465 48.2152 154.584 49.1293 153.49 49.8194C152.396 50.4975 151.162 50.8365 149.789 50.8365Z" fill="#004AAD"/>
<path d="M164.745 50.4732H160.552C160.467 50.4732 160.431 50.4127 160.443 50.2916L164.709 37.0158L160.516 24.7388C160.492 24.6419 160.528 24.5935 160.625 24.5935H164.818C164.94 24.5935 165.013 24.6419 165.037 24.7388L167.535 33.5833L170.069 24.7388C170.093 24.6419 170.172 24.5935 170.306 24.5935H174.444C174.541 24.5935 174.578 24.6419 174.553 24.7388L170.379 36.9794L174.59 50.2916C174.638 50.4127 174.602 50.4732 174.48 50.4732H170.306C170.196 50.4732 170.117 50.4127 170.069 50.2916L167.535 40.6843L164.964 50.2916C164.952 50.4127 164.879 50.4732 164.745 50.4732Z" fill="#004AAD"/>
<path d="M183.074 50.4732H178.845C178.723 50.4732 178.663 50.4127 178.663 50.2916L178.699 24.7388C178.699 24.6419 178.748 24.5935 178.845 24.5935H183.038C183.135 24.5935 183.184 24.6419 183.184 24.7388L183.22 50.2916C183.22 50.4127 183.172 50.4732 183.074 50.4732Z" fill="#004AAD"/>
<path d="M195.241 50.8365C193.892 50.8365 192.659 50.4975 191.541 49.8194C190.435 49.1414 189.553 48.2334 188.897 47.0953C188.253 45.945 187.931 44.6677 187.931 43.2632L187.967 31.6582C187.967 30.278 188.283 29.0309 188.915 27.917C189.547 26.791 190.416 25.889 191.522 25.211C192.64 24.5208 193.88 24.1758 195.241 24.1758C196.627 24.1758 197.86 24.5087 198.942 25.1746C200.036 25.8406 200.905 26.7426 201.549 27.8807C202.205 29.0067 202.534 30.2658 202.534 31.6582V33.3654C202.534 33.4622 202.485 33.5107 202.388 33.5107H198.195C198.097 33.5107 198.049 33.4622 198.049 33.3654V31.6582C198.049 30.8349 197.781 30.1266 197.247 29.5333C196.712 28.9401 196.044 28.6434 195.241 28.6434C194.354 28.6434 193.674 28.9461 193.2 29.5515C192.726 30.1569 192.489 30.8591 192.489 31.6582V43.2632C192.489 44.1713 192.756 44.9159 193.291 45.4971C193.825 46.0661 194.476 46.3506 195.241 46.3506C196.044 46.3506 196.712 46.0358 197.247 45.4063C197.781 44.7646 198.049 44.0502 198.049 43.2632V41.5379C198.049 41.4411 198.097 41.3926 198.195 41.3926H202.424C202.521 41.3926 202.57 41.4411 202.57 41.5379V43.2632C202.57 44.6556 202.242 45.9269 201.586 47.0771C200.917 48.2152 200.036 49.1293 198.942 49.8194C197.848 50.4975 196.615 50.8365 195.241 50.8365Z" fill="#004AAD"/>
<path d="M211.529 50.4732H207.299C207.202 50.4732 207.153 50.4127 207.153 50.2916L207.226 24.7751C207.226 24.654 207.275 24.5935 207.372 24.5935H211.565C211.662 24.5935 211.711 24.654 211.711 24.7751V33.5833L217.563 24.7388C217.66 24.6419 217.751 24.5935 217.836 24.5935H222.12C222.23 24.5935 222.254 24.6419 222.193 24.7388L215.74 34.9999L222.977 50.3279C223.038 50.4248 222.977 50.4732 222.795 50.4732H218.237C218.116 50.4732 218.043 50.4248 218.019 50.3279L212.969 39.3949L211.674 41.4289V50.2916C211.674 50.4127 211.626 50.4732 211.529 50.4732Z" fill="#004AAD"/>
<path d="M116.732 74.1044H110.391C110.34 74.1044 110.314 74.0721 110.314 74.0076L110.333 60.3794C110.333 60.3277 110.359 60.3019 110.41 60.3019H116.713C116.764 60.3019 116.789 60.3342 116.789 60.3987V62.6168C116.789 62.6685 116.764 62.6943 116.713 62.6943H112.69V65.7938H116.713C116.764 65.7938 116.789 65.8197 116.789 65.8713L116.809 68.1185C116.809 68.1701 116.783 68.196 116.732 68.196H112.69V71.6635H116.732C116.783 71.6635 116.809 71.6958 116.809 71.7604V74.0269C116.809 74.0786 116.783 74.1044 116.732 74.1044Z" fill="#818181"/>
<path d="M124.125 74.085L120.609 74.1044C120.546 74.1044 120.514 74.0721 120.514 74.0076L120.552 60.3794C120.552 60.3277 120.578 60.3019 120.629 60.3019L124.297 60.2825C125.025 60.2631 125.683 60.431 126.27 60.7862C126.864 61.1413 127.337 61.6224 127.688 62.2294C128.046 62.8299 128.225 63.495 128.225 64.2247V69.9201C128.225 70.682 128.043 71.3794 127.679 72.0122C127.308 72.6386 126.816 73.139 126.203 73.5136C125.59 73.8816 124.898 74.0721 124.125 74.085ZM124.297 62.6556L122.927 62.6749L122.908 71.6635H124.125C124.61 71.6635 125.019 71.4924 125.351 71.1502C125.683 70.8079 125.849 70.3979 125.849 69.9201V64.2053C125.849 63.7856 125.696 63.4208 125.389 63.1108C125.083 62.7944 124.719 62.6427 124.297 62.6556Z" fill="#818181"/>
<path d="M135.34 74.2981C134.65 74.2981 134.011 74.1173 133.424 73.7557C132.836 73.3941 132.367 72.9098 132.016 72.3028C131.671 71.6894 131.499 71.021 131.499 70.2978L131.537 60.3794C131.537 60.3277 131.562 60.3019 131.613 60.3019H133.817C133.868 60.3019 133.893 60.3277 133.893 60.3794V70.2978C133.893 70.7434 134.034 71.1244 134.315 71.4408C134.596 71.7507 134.937 71.9057 135.34 71.9057C135.761 71.9057 136.112 71.7507 136.393 71.4408C136.674 71.1244 136.815 70.7434 136.815 70.2978V60.3794C136.815 60.3277 136.84 60.3019 136.891 60.3019H139.094C139.146 60.3019 139.171 60.3277 139.171 60.3794L139.209 70.2978C139.209 71.0275 139.037 71.6991 138.692 72.3125C138.341 72.9195 137.875 73.4038 137.294 73.7654C136.713 74.1206 136.061 74.2981 135.34 74.2981Z" fill="#818181"/>
<path d="M146.325 74.2981C145.616 74.2981 144.968 74.1173 144.38 73.7557C143.799 73.3941 143.336 72.9098 142.991 72.3028C142.653 71.6894 142.483 71.0081 142.483 70.2591L142.503 64.0697C142.503 63.3336 142.669 62.6685 143.001 62.0744C143.333 61.4739 143.789 60.9928 144.37 60.6312C144.958 60.2631 145.609 60.0791 146.325 60.0791C147.052 60.0791 147.701 60.2567 148.269 60.6118C148.844 60.967 149.3 61.4481 149.639 62.055C149.984 62.6556 150.156 63.3271 150.156 64.0697V64.9802C150.156 65.0319 150.13 65.0577 150.079 65.0577H147.876C147.825 65.0577 147.8 65.0319 147.8 64.9802V64.0697C147.8 63.6306 147.659 63.2529 147.378 62.9365C147.097 62.6201 146.746 62.4619 146.325 62.4619C145.858 62.4619 145.501 62.6233 145.252 62.9462C145.003 63.269 144.878 63.6435 144.878 64.0697V70.2591C144.878 70.7434 145.019 71.1405 145.3 71.4505C145.581 71.7539 145.922 71.9057 146.325 71.9057C146.746 71.9057 147.097 71.7378 147.378 71.402C147.659 71.0598 147.8 70.6788 147.8 70.2591V69.3389C147.8 69.2872 147.825 69.2614 147.876 69.2614H150.099C150.15 69.2614 150.175 69.2872 150.175 69.3389V70.2591C150.175 71.0017 150.003 71.6797 149.658 72.2931C149.307 72.9001 148.844 73.3876 148.269 73.7557C147.694 74.1173 147.046 74.2981 146.325 74.2981Z" fill="#818181"/>
<path d="M152.903 74.0076L155.336 60.3794C155.349 60.3277 155.381 60.3019 155.432 60.3019H158.277C158.328 60.3019 158.36 60.3277 158.373 60.3794L160.71 74.0076C160.716 74.0721 160.691 74.1044 160.633 74.1044H158.459C158.395 74.1044 158.36 74.0721 158.353 74.0076L158.143 72.5547H155.47L155.26 74.0076C155.253 74.0721 155.221 74.1044 155.164 74.1044H152.98C152.929 74.1044 152.903 74.0721 152.903 74.0076ZM156.744 64.864L155.863 70.4334H157.75L156.945 64.864L156.83 64.1278L156.744 64.864Z" fill="#818181"/>
<path d="M168.084 74.1044H165.871C165.813 74.1044 165.785 74.0721 165.785 74.0076V62.6943H163.237C163.173 62.6943 163.141 62.662 163.141 62.5975L163.16 60.3794C163.16 60.3277 163.186 60.3019 163.237 60.3019H170.689C170.759 60.3019 170.794 60.3277 170.794 60.3794V62.5975C170.794 62.662 170.769 62.6943 170.718 62.6943H168.141L168.16 74.0076C168.16 74.0721 168.135 74.1044 168.084 74.1044Z" fill="#818181"/>
<path d="M176.032 74.1044H173.81C173.746 74.1044 173.714 74.0721 173.714 74.0076L173.733 60.3794C173.733 60.3277 173.759 60.3019 173.81 60.3019H176.013C176.064 60.3019 176.089 60.3277 176.089 60.3794L176.109 74.0076C176.109 74.0721 176.083 74.1044 176.032 74.1044Z" fill="#818181"/>
<path d="M183.425 74.2981C182.729 74.2981 182.087 74.1173 181.5 73.7557C180.918 73.3941 180.449 72.913 180.091 72.3125C179.74 71.7055 179.565 71.0404 179.565 70.3172L179.584 64.031C179.584 63.2948 179.759 62.633 180.111 62.0454C180.455 61.4513 180.922 60.9767 181.509 60.6215C182.097 60.2599 182.735 60.0791 183.425 60.0791C184.14 60.0791 184.782 60.2567 185.35 60.6118C185.925 60.967 186.385 61.4448 186.73 62.0454C187.081 62.6394 187.256 63.3013 187.256 64.031L187.276 70.3172C187.276 71.0404 187.103 71.7023 186.758 72.3028C186.407 72.9098 185.941 73.3941 185.36 73.7557C184.779 74.1173 184.134 74.2981 183.425 74.2981ZM183.425 71.9057C183.821 71.9057 184.166 71.7443 184.459 71.4214C184.753 71.0921 184.9 70.724 184.9 70.3172L184.881 64.031C184.881 63.5919 184.744 63.2206 184.469 62.9171C184.194 62.6136 183.846 62.4619 183.425 62.4619C183.023 62.4619 182.678 62.6104 182.39 62.9074C182.103 63.2044 181.959 63.579 181.959 64.031V70.3172C181.959 70.7498 182.103 71.1244 182.39 71.4408C182.678 71.7507 183.023 71.9057 183.425 71.9057Z" fill="#818181"/>
<path d="M192.858 74.1044H190.894C190.792 74.1044 190.741 74.0592 190.741 73.9688L190.722 60.4569C190.722 60.3535 190.773 60.3019 190.875 60.3019H192.647L195.962 68.1185L195.866 60.4569C195.866 60.3535 195.923 60.3019 196.038 60.3019H197.983C198.059 60.3019 198.098 60.3535 198.098 60.4569L198.117 73.9882C198.117 74.0657 198.085 74.1044 198.021 74.1044H196.297L192.896 66.8012L193.04 73.9494C193.04 74.0528 192.979 74.1044 192.858 74.1044Z" fill="#818181"/>
<path fill-rule="evenodd" clip-rule="evenodd" d="M56.5355 45.799C57.8482 45.8045 68.4643 45.8101 68.9679 45.799C69.4733 45.7879 69.4215 45.9027 69.4215 46.1378C69.4215 46.3711 69.4159 49.2001 69.4215 49.5241C69.4252 49.8499 69.2438 49.7425 68.9679 49.75C68.6939 49.7592 65.6334 49.75 65.352 49.75C65.2761 49.7444 65.2002 49.7555 65.1299 49.7833C65.0577 49.8092 64.9947 49.8499 64.941 49.9036C64.8855 49.9573 64.8447 50.0203 64.8188 50.0925C64.791 50.1647 64.7818 50.2387 64.7873 50.3146C64.7873 50.7183 64.7873 64.3319 64.7873 64.6559C64.7873 64.978 64.6096 64.9928 64.3337 64.9947C64.0597 64.9965 61.4862 64.9965 61.1696 64.9947C60.853 64.991 60.716 65.0521 60.7179 64.5429C60.7197 64.0319 60.6938 50.5535 60.7179 50.3146C60.7401 50.0777 60.5439 49.7592 60.2661 49.75C59.9884 49.7425 56.754 49.7462 56.5355 49.75C56.317 49.7555 56.2096 49.7055 56.1967 49.4111C56.1837 49.1186 56.1967 46.3415 56.1967 46.1378C56.1911 46.0915 56.1967 46.0452 56.2133 46.0026C56.2282 45.9582 56.2522 45.9193 56.2855 45.8879C56.3189 45.8545 56.3559 45.8305 56.4003 45.8138C56.4448 45.799 56.4892 45.7934 56.5355 45.799Z" fill="#0277BD"/>
<path fill-rule="evenodd" clip-rule="evenodd" d="M32.7483 66.2905C34.8997 79.3691 73.4688 79.9893 92.8885 79.4265C79.4138 81.4853 22.1489 88.8262 32.7483 66.2905Z" fill="#29B6F6"/>
<path fill-rule="evenodd" clip-rule="evenodd" d="M60.468 76.7218C53.9454 73.765 34.122 70.1492 37.7601 53.627C27.3235 69.4197 43.4144 74.8222 60.468 76.7218Z" fill="#0277BD"/>
<path fill-rule="evenodd" clip-rule="evenodd" d="M39.9392 61.1511C39.2431 59.6367 38.6377 58.4703 40.3466 56.1541C42.0573 53.838 43.1904 52.4883 43.2403 52.4253C43.2922 52.3624 41.5 55.2488 40.5669 57.6056C40.191 58.8498 39.8837 60.9382 39.9392 61.1511Z" fill="#29B6F6"/>
<path fill-rule="evenodd" clip-rule="evenodd" d="M86.0899 74.9571C96.5135 66.7608 78.4342 32.7185 68.5642 16C76.8753 26.7957 110.962 73.3464 86.0899 74.9571Z" fill="#D4E157"/>
<path fill-rule="evenodd" clip-rule="evenodd" d="M81.8484 45.6694C82.4057 52.8049 88.8061 71.8913 72.569 76.6865C91.4518 78.1918 88.4173 61.5048 81.8484 45.6694Z" fill="#4CAF50"/>
<path fill-rule="evenodd" clip-rule="evenodd" d="M78.1122 71.147C77.1198 72.4874 76.3903 73.5816 73.5336 73.2021C70.6787 72.8244 68.9476 72.4856 68.868 72.4726C68.7883 72.4578 72.1839 72.6318 74.7 72.3115C75.9719 72.0394 77.9511 71.2988 78.1122 71.147Z" fill="#D4E157"/>
<path fill-rule="evenodd" clip-rule="evenodd" d="M67.3868 24.0057C55.0729 19.0735 34.5719 51.718 25 68.6068C30.2136 56.0245 53.5732 3.27892 67.3868 24.0057Z" fill="#EC407A"/>
<path fill-rule="evenodd" clip-rule="evenodd" d="M44.103 42.2977C50.0128 38.2542 63.3709 23.1835 75.6367 34.8457C67.5144 17.7476 54.5581 28.7063 44.103 42.2977Z" fill="#F8BBD0"/>
<path fill-rule="evenodd" clip-rule="evenodd" d="M68.0643 32.8125C69.7232 33.0013 71.034 33.0865 72.1338 35.7489C73.2317 38.4094 73.8019 40.0775 73.8279 40.1516C73.8556 40.2275 72.3134 37.2023 70.7767 35.1842C69.9065 34.2196 68.2754 32.8754 68.0643 32.8125Z" fill="#EC407A"/>
<defs>
<linearGradient id="paint0_linear_1553_16131" x1="0" y1="0" x2="247" y2="99" gradientUnits="userSpaceOnUse">
<stop stop-color="#F2F2F2"/>
<stop offset="0.109375" stop-color="#FDFDFD"/>
<stop offset="0.802083" stop-color="#F3F3F3"/>
</linearGradient>
</defs>
</svg>
