<svg width="247" height="99" viewBox="0 0 247 99" fill="none" xmlns="http://www.w3.org/2000/svg">
<rect width="247" height="99" rx="10" fill="url(#paint0_linear_1553_16114)"/>
<path fill-rule="evenodd" clip-rule="evenodd" d="M56.5355 45.799C57.8482 45.8045 68.4643 45.8101 68.9679 45.799C69.4733 45.7879 69.4215 45.9027 69.4215 46.1378C69.4215 46.3711 69.4159 49.2001 69.4215 49.5241C69.4252 49.8499 69.2438 49.7425 68.9679 49.75C68.6939 49.7592 65.6334 49.75 65.352 49.75C65.2761 49.7444 65.2002 49.7555 65.1299 49.7833C65.0577 49.8092 64.9947 49.8499 64.941 49.9036C64.8855 49.9573 64.8447 50.0203 64.8188 50.0925C64.791 50.1647 64.7818 50.2387 64.7873 50.3146C64.7873 50.7183 64.7873 64.3319 64.7873 64.6559C64.7873 64.978 64.6096 64.9928 64.3337 64.9947C64.0597 64.9965 61.4862 64.9965 61.1696 64.9947C60.853 64.991 60.716 65.0521 60.7179 64.5429C60.7197 64.0319 60.6938 50.5535 60.7179 50.3146C60.7401 50.0777 60.5439 49.7592 60.2661 49.75C59.9884 49.7425 56.754 49.7462 56.5355 49.75C56.317 49.7555 56.2096 49.7055 56.1967 49.4111C56.1837 49.1186 56.1967 46.3415 56.1967 46.1378C56.1911 46.0915 56.1967 46.0452 56.2133 46.0026C56.2282 45.9582 56.2522 45.9193 56.2855 45.8879C56.3189 45.8545 56.3559 45.8305 56.4003 45.8138C56.4448 45.799 56.4892 45.7934 56.5355 45.799Z" fill="#0277BD"/>
<path fill-rule="evenodd" clip-rule="evenodd" d="M32.7482 66.2905C34.8996 79.3691 73.4687 79.9893 92.8884 79.4265C79.4137 81.4853 22.1487 88.8262 32.7482 66.2905Z" fill="#29B6F6"/>
<path fill-rule="evenodd" clip-rule="evenodd" d="M60.468 76.7218C53.9454 73.765 34.122 70.1492 37.7601 53.627C27.3235 69.4197 43.4144 74.8222 60.468 76.7218Z" fill="#0277BD"/>
<path fill-rule="evenodd" clip-rule="evenodd" d="M39.9392 61.1511C39.2431 59.6367 38.6377 58.4703 40.3466 56.1541C42.0573 53.838 43.1904 52.4883 43.2403 52.4253C43.2922 52.3624 41.5 55.2488 40.5669 57.6056C40.191 58.8498 39.8837 60.9382 39.9392 61.1511Z" fill="#29B6F6"/>
<path fill-rule="evenodd" clip-rule="evenodd" d="M86.09 74.9571C96.5136 66.7608 78.4343 32.7185 68.5643 16C76.8754 26.7957 110.962 73.3464 86.09 74.9571Z" fill="#D4E157"/>
<path fill-rule="evenodd" clip-rule="evenodd" d="M81.8484 45.6694C82.4057 52.8049 88.8061 71.8913 72.569 76.6865C91.4518 78.1918 88.4173 61.5048 81.8484 45.6694Z" fill="#4CAF50"/>
<path fill-rule="evenodd" clip-rule="evenodd" d="M78.1122 71.147C77.1198 72.4874 76.3903 73.5816 73.5336 73.2021C70.6787 72.8244 68.9476 72.4856 68.868 72.4726C68.7883 72.4578 72.1839 72.6318 74.7 72.3115C75.9719 72.0394 77.9511 71.2988 78.1122 71.147Z" fill="#D4E157"/>
<path fill-rule="evenodd" clip-rule="evenodd" d="M67.3868 24.0057C55.0729 19.0735 34.5719 51.718 25 68.6068C30.2136 56.0245 53.5732 3.27892 67.3868 24.0057Z" fill="#EC407A"/>
<path fill-rule="evenodd" clip-rule="evenodd" d="M44.1031 42.2977C50.0129 38.2542 63.371 23.1835 75.6368 34.8457C67.5146 17.7476 54.5582 28.7063 44.1031 42.2977Z" fill="#F8BBD0"/>
<path fill-rule="evenodd" clip-rule="evenodd" d="M68.0645 32.813C69.7233 33.0018 71.0342 33.087 72.1339 35.7494C73.2318 38.4099 73.8021 40.078 73.828 40.1521C73.8557 40.228 72.3135 37.2027 70.7768 35.1847C69.9066 34.2201 68.2755 32.8759 68.0645 32.813Z" fill="#EC407A"/>
<path d="M116.522 50.4732H112.311C112.201 50.4732 112.146 50.4127 112.146 50.2916V29.0793H107.297C107.176 29.0793 107.115 29.0188 107.115 28.8977L107.151 24.7388C107.151 24.6419 107.2 24.5935 107.297 24.5935H121.481C121.614 24.5935 121.681 24.6419 121.681 24.7388V28.8977C121.681 29.0188 121.632 29.0793 121.535 29.0793H116.631L116.668 50.2916C116.668 50.4127 116.619 50.4732 116.522 50.4732Z" fill="#004AAD"/>
<path d="M137.585 50.4732H125.517C125.42 50.4732 125.371 50.4127 125.371 50.2916L125.407 24.7388C125.407 24.6419 125.456 24.5935 125.553 24.5935H137.549C137.646 24.5935 137.695 24.654 137.695 24.7751V28.934C137.695 29.0309 137.646 29.0793 137.549 29.0793H129.892V34.8909H137.549C137.646 34.8909 137.695 34.9393 137.695 35.0362L137.731 39.2496C137.731 39.3465 137.683 39.3949 137.585 39.3949H129.892V45.8966H137.585C137.683 45.8966 137.731 45.9571 137.731 46.0782V50.3279C137.731 50.4248 137.683 50.4732 137.585 50.4732Z" fill="#004AAD"/>
<path d="M149.789 50.8365C148.44 50.8365 147.206 50.4975 146.088 49.8194C144.982 49.1414 144.101 48.2334 143.445 47.0953C142.801 45.945 142.478 44.6677 142.478 43.2632L142.515 31.6582C142.515 30.278 142.831 29.0309 143.463 27.917C144.095 26.791 144.964 25.889 146.07 25.211C147.188 24.5208 148.428 24.1758 149.789 24.1758C151.174 24.1758 152.408 24.5087 153.49 25.1746C154.584 25.8406 155.453 26.7426 156.097 27.8807C156.753 29.0067 157.081 30.2658 157.081 31.6582V33.3654C157.081 33.4622 157.032 33.5107 156.935 33.5107H152.742C152.645 33.5107 152.596 33.4622 152.596 33.3654V31.6582C152.596 30.8349 152.329 30.1266 151.794 29.5333C151.259 28.9401 150.591 28.6434 149.789 28.6434C148.902 28.6434 148.221 28.9461 147.747 29.5515C147.273 30.1569 147.036 30.8591 147.036 31.6582V43.2632C147.036 44.1713 147.303 44.9159 147.838 45.4971C148.373 46.0661 149.023 46.3506 149.789 46.3506C150.591 46.3506 151.259 46.0358 151.794 45.4063C152.329 44.7646 152.596 44.0502 152.596 43.2632V41.5379C152.596 41.4411 152.645 41.3926 152.742 41.3926H156.972C157.069 41.3926 157.118 41.4411 157.118 41.5379V43.2632C157.118 44.6556 156.789 45.9269 156.133 47.0771C155.465 48.2152 154.584 49.1293 153.49 49.8194C152.396 50.4975 151.162 50.8365 149.789 50.8365Z" fill="#004AAD"/>
<path d="M164.745 50.4732H160.552C160.467 50.4732 160.431 50.4127 160.443 50.2916L164.709 37.0158L160.516 24.7388C160.491 24.6419 160.528 24.5935 160.625 24.5935H164.818C164.94 24.5935 165.013 24.6419 165.037 24.7388L167.534 33.5833L170.069 24.7388C170.093 24.6419 170.172 24.5935 170.306 24.5935H174.444C174.541 24.5935 174.578 24.6419 174.553 24.7388L170.378 36.9794L174.59 50.2916C174.638 50.4127 174.602 50.4732 174.48 50.4732H170.306C170.196 50.4732 170.117 50.4127 170.069 50.2916L167.534 40.6843L164.964 50.2916C164.952 50.4127 164.879 50.4732 164.745 50.4732Z" fill="#004AAD"/>
<path d="M183.074 50.4732H178.845C178.723 50.4732 178.662 50.4127 178.662 50.2916L178.699 24.7388C178.699 24.6419 178.747 24.5935 178.845 24.5935H183.038C183.135 24.5935 183.184 24.6419 183.184 24.7388L183.22 50.2916C183.22 50.4127 183.171 50.4732 183.074 50.4732Z" fill="#004AAD"/>
<path d="M195.241 50.8365C193.892 50.8365 192.659 50.4975 191.54 49.8194C190.434 49.1414 189.553 48.2334 188.897 47.0953C188.253 45.945 187.931 44.6677 187.931 43.2632L187.967 31.6582C187.967 30.278 188.283 29.0309 188.915 27.917C189.547 26.791 190.416 25.889 191.522 25.211C192.64 24.5208 193.88 24.1758 195.241 24.1758C196.627 24.1758 197.86 24.5087 198.942 25.1746C200.036 25.8406 200.905 26.7426 201.549 27.8807C202.205 29.0067 202.533 30.2658 202.533 31.6582V33.3654C202.533 33.4622 202.485 33.5107 202.388 33.5107H198.195C198.097 33.5107 198.049 33.4622 198.049 33.3654V31.6582C198.049 30.8349 197.781 30.1266 197.247 29.5333C196.712 28.9401 196.043 28.6434 195.241 28.6434C194.354 28.6434 193.673 28.9461 193.199 29.5515C192.725 30.1569 192.488 30.8591 192.488 31.6582V43.2632C192.488 44.1713 192.756 44.9159 193.291 45.4971C193.825 46.0661 194.476 46.3506 195.241 46.3506C196.043 46.3506 196.712 46.0358 197.247 45.4063C197.781 44.7646 198.049 44.0502 198.049 43.2632V41.5379C198.049 41.4411 198.097 41.3926 198.195 41.3926H202.424C202.521 41.3926 202.57 41.4411 202.57 41.5379V43.2632C202.57 44.6556 202.242 45.9269 201.585 47.0771C200.917 48.2152 200.036 49.1293 198.942 49.8194C197.848 50.4975 196.615 50.8365 195.241 50.8365Z" fill="#004AAD"/>
<path d="M211.528 50.4732H207.299C207.202 50.4732 207.153 50.4127 207.153 50.2916L207.226 24.7751C207.226 24.654 207.275 24.5935 207.372 24.5935H211.565C211.662 24.5935 211.711 24.654 211.711 24.7751V33.5833L217.563 24.7388C217.66 24.6419 217.751 24.5935 217.836 24.5935H222.12C222.23 24.5935 222.254 24.6419 222.193 24.7388L215.74 34.9999L222.977 50.3279C223.038 50.4248 222.977 50.4732 222.795 50.4732H218.237C218.116 50.4732 218.043 50.4248 218.018 50.3279L212.969 39.3949L211.674 41.4289V50.2916C211.674 50.4127 211.626 50.4732 211.528 50.4732Z" fill="#004AAD"/>
<path d="M114.159 74.2981C113.462 74.2981 112.82 74.1173 112.232 73.7557C111.65 73.3941 111.183 72.913 110.832 72.3125C110.487 71.7055 110.314 71.0404 110.314 70.3172V69.4067C110.314 69.3357 110.346 69.3002 110.41 69.3002H112.615C112.666 69.3002 112.692 69.3357 112.692 69.4067V70.3172C112.692 70.7498 112.836 71.1244 113.123 71.4408C113.411 71.7507 113.756 71.9057 114.159 71.9057C114.568 71.9057 114.916 71.7475 115.204 71.4311C115.491 71.1082 115.635 70.7369 115.635 70.3172C115.635 69.8329 115.322 69.4099 114.696 69.0483C114.593 68.9838 114.459 68.9063 114.293 68.8159C114.133 68.719 113.941 68.6092 113.718 68.4865C113.494 68.3638 113.277 68.2444 113.066 68.1282C112.855 68.0055 112.65 67.8892 112.452 67.7795C111.736 67.3533 111.203 66.8205 110.851 66.1813C110.506 65.5355 110.333 64.8123 110.333 64.0116C110.333 63.2755 110.512 62.6104 110.87 62.0163C111.228 61.4287 111.695 60.9638 112.27 60.6215C112.852 60.2728 113.481 60.0985 114.159 60.0985C114.855 60.0985 115.494 60.2728 116.076 60.6215C116.658 60.9767 117.121 61.4481 117.466 62.0357C117.818 62.6233 117.994 63.2819 117.994 64.0116V65.6389C117.994 65.6905 117.968 65.7163 117.917 65.7163H115.712C115.661 65.7163 115.635 65.6905 115.635 65.6389L115.616 64.0116C115.616 63.5467 115.472 63.1689 115.185 62.8784C114.897 62.5878 114.555 62.4425 114.159 62.4425C113.756 62.4425 113.411 62.5975 113.123 62.9074C112.836 63.2174 112.692 63.5854 112.692 64.0116C112.692 64.4443 112.781 64.8059 112.96 65.0964C113.146 65.387 113.481 65.6647 113.967 65.9294C114.018 65.9553 114.136 66.0198 114.322 66.1232C114.507 66.2265 114.712 66.3427 114.935 66.4719C115.165 66.5945 115.373 66.7075 115.558 66.8109C115.744 66.9077 115.856 66.9658 115.894 66.9852C116.546 67.3533 117.06 67.8053 117.438 68.3412C117.821 68.8772 118.013 69.5359 118.013 70.3172C118.013 71.0727 117.84 71.7507 117.495 72.3512C117.143 72.9518 116.677 73.4264 116.095 73.7751C115.514 74.1238 114.868 74.2981 114.159 74.2981Z" fill="#818181"/>
<path d="M124.971 74.2981C124.274 74.2981 123.632 74.1173 123.044 73.7557C122.462 73.3941 121.993 72.913 121.635 72.3125C121.283 71.7055 121.107 71.0404 121.107 70.3172L121.127 64.031C121.127 63.2948 121.302 62.633 121.654 62.0454C121.999 61.4513 122.466 60.9767 123.054 60.6215C123.642 60.2599 124.281 60.0791 124.971 60.0791C125.687 60.0791 126.329 60.2567 126.898 60.6118C127.473 60.967 127.934 61.4448 128.279 62.0454C128.63 62.6394 128.806 63.3013 128.806 64.031L128.825 70.3172C128.825 71.0404 128.653 71.7023 128.307 72.3028C127.956 72.9098 127.489 73.3941 126.908 73.7557C126.326 74.1173 125.681 74.2981 124.971 74.2981ZM124.971 71.9057C125.367 71.9057 125.713 71.7443 126.007 71.4214C126.301 71.0921 126.448 70.724 126.448 70.3172L126.428 64.031C126.428 63.5919 126.291 63.2206 126.016 62.9171C125.741 62.6136 125.393 62.4619 124.971 62.4619C124.568 62.4619 124.223 62.6104 123.936 62.9074C123.648 63.2044 123.504 63.579 123.504 64.031V70.3172C123.504 70.7498 123.648 71.1244 123.936 71.4408C124.223 71.7507 124.568 71.9057 124.971 71.9057Z" fill="#818181"/>
<path d="M134.576 74.1044H132.371C132.307 74.1044 132.275 74.0721 132.275 74.0076L132.313 60.3794C132.313 60.3277 132.339 60.3019 132.39 60.3019H138.679C138.743 60.3019 138.775 60.3277 138.775 60.3794V62.6168C138.775 62.6685 138.749 62.6943 138.698 62.6943H134.671V65.7745H138.698C138.749 65.7745 138.775 65.8067 138.775 65.8713L138.794 68.1185C138.794 68.1701 138.762 68.196 138.698 68.196H134.671V74.0076C134.671 74.0721 134.64 74.1044 134.576 74.1044Z" fill="#818181"/>
<path d="M146.692 74.1044H144.477C144.42 74.1044 144.391 74.0721 144.391 74.0076V62.6943H141.841C141.777 62.6943 141.745 62.662 141.745 62.5975L141.764 60.3794C141.764 60.3277 141.79 60.3019 141.841 60.3019H149.3C149.37 60.3019 149.405 60.3277 149.405 60.3794V62.5975C149.405 62.662 149.38 62.6943 149.328 62.6943H146.749L146.769 74.0076C146.769 74.0721 146.743 74.1044 146.692 74.1044Z" fill="#818181"/>
<path d="M156.517 74.1044H154.139C154.082 74.1044 154.05 74.0721 154.043 74.0076L151.723 60.3794C151.71 60.3277 151.73 60.3019 151.781 60.3019H153.986C154.037 60.3019 154.069 60.3277 154.082 60.3794L155.338 69.3389L156.632 60.3794C156.645 60.3277 156.683 60.3019 156.747 60.3019H158.521C158.572 60.3019 158.604 60.3277 158.616 60.3794L159.892 69.3389L161.167 60.3794C161.179 60.3277 161.211 60.3019 161.263 60.3019H163.448C163.512 60.3019 163.538 60.3277 163.525 60.3794L161.186 74.0076C161.179 74.0334 161.16 74.056 161.128 74.0754L161.09 74.1044H158.712C158.674 74.1044 158.642 74.0721 158.616 74.0076L157.61 66.8884L156.613 74.0076C156.606 74.0721 156.574 74.1044 156.517 74.1044Z" fill="#818181"/>
<path d="M165.978 74.0076L168.413 60.3794C168.425 60.3277 168.457 60.3019 168.509 60.3019H171.356C171.407 60.3019 171.439 60.3277 171.452 60.3794L173.791 74.0076C173.797 74.0721 173.772 74.1044 173.714 74.1044H171.538C171.474 74.1044 171.439 74.0721 171.433 74.0076L171.222 72.5547H168.547L168.336 74.0076C168.33 74.0721 168.298 74.1044 168.24 74.1044H166.054C166.003 74.1044 165.978 74.0721 165.978 74.0076ZM169.822 64.864L168.94 70.4334H170.829L170.023 64.864L169.908 64.1278L169.822 64.864Z" fill="#818181"/>
<path d="M179.283 74.1044H177.058C177.007 74.1044 176.982 74.0721 176.982 74.0076L177.02 60.3794C177.02 60.3277 177.046 60.3019 177.097 60.3019H181.066C181.775 60.3019 182.427 60.4762 183.022 60.8249C183.616 61.1736 184.089 61.6418 184.441 62.2294C184.798 62.817 184.977 63.4821 184.977 64.2247C184.977 64.709 184.904 65.1481 184.757 65.542C184.61 65.9359 184.437 66.2684 184.239 66.5397C184.047 66.8109 183.872 67.011 183.712 67.1402C184.421 67.9344 184.776 68.8675 184.776 69.9394L184.795 74.0076C184.795 74.0721 184.763 74.1044 184.699 74.1044H182.475C182.424 74.1044 182.398 74.085 182.398 74.0463V69.9394C182.398 69.4616 182.232 69.0483 181.9 68.6996C181.568 68.3509 181.159 68.1766 180.673 68.1766H179.379L179.359 74.0076C179.359 74.0721 179.334 74.1044 179.283 74.1044ZM181.066 62.6749H179.379V65.7938H181.066C181.469 65.7938 181.826 65.6421 182.14 65.3386C182.459 65.0351 182.619 64.6638 182.619 64.2247C182.619 63.805 182.466 63.4434 182.159 63.1399C181.852 62.8299 181.488 62.6749 181.066 62.6749Z" fill="#818181"/>
<path d="M194.841 74.1044H188.494C188.443 74.1044 188.417 74.0721 188.417 74.0076L188.436 60.3794C188.436 60.3277 188.462 60.3019 188.513 60.3019H194.822C194.873 60.3019 194.898 60.3342 194.898 60.3987V62.6168C194.898 62.6685 194.873 62.6943 194.822 62.6943H190.795V65.7938H194.822C194.873 65.7938 194.898 65.8197 194.898 65.8713L194.917 68.1185C194.917 68.1701 194.892 68.196 194.841 68.196H190.795V71.6635H194.841C194.892 71.6635 194.917 71.6958 194.917 71.7604V74.0269C194.917 74.0786 194.892 74.1044 194.841 74.1044Z" fill="#818181"/>
<defs>
<linearGradient id="paint0_linear_1553_16114" x1="0" y1="0" x2="247" y2="99" gradientUnits="userSpaceOnUse">
<stop stop-color="#F2F2F2"/>
<stop offset="0.109375" stop-color="#FDFDFD"/>
<stop offset="0.802083" stop-color="#F3F3F3"/>
</linearGradient>
</defs>
</svg>
