<svg width="317" height="286" viewBox="0 0 317 286" fill="none" xmlns="http://www.w3.org/2000/svg">
<path fill-rule="evenodd" clip-rule="evenodd" d="M141.042 89.0063C145.01 89.0228 177.102 89.0393 178.624 89.0063C180.152 88.9733 179.995 89.3141 179.995 90.0122C179.995 90.7047 179.979 99.1037 179.995 100.066C180.007 101.033 179.458 100.714 178.624 100.736C177.796 100.764 168.544 100.736 167.694 100.736C167.464 100.72 167.235 100.753 167.022 100.835C166.804 100.912 166.613 101.033 166.451 101.192C166.283 101.352 166.16 101.539 166.082 101.753C165.998 101.967 165.97 102.187 165.987 102.413C165.987 103.611 165.987 144.028 165.987 144.99C165.987 145.946 165.449 145.99 164.615 145.996C163.787 146.001 156.008 146.001 155.05 145.996C154.093 145.985 153.679 146.166 153.685 144.655C153.69 143.138 153.612 103.122 153.685 102.413C153.752 101.709 153.159 100.764 152.319 100.736C151.48 100.714 141.702 100.725 141.042 100.736C140.381 100.753 140.057 100.604 140.017 99.7303C139.978 98.8618 140.017 90.6168 140.017 90.0122C140.001 89.8747 140.017 89.7373 140.068 89.6109C140.113 89.479 140.185 89.3636 140.286 89.2701C140.387 89.1712 140.499 89.0997 140.633 89.0502C140.767 89.0063 140.902 88.9898 141.042 89.0063Z" fill="#0277BD"/>
<path fill-rule="evenodd" clip-rule="evenodd" d="M69.8953 150C76.3381 189.415 191.843 191.284 250 189.588C209.646 195.793 38.1525 217.916 69.8953 150Z" fill="#29B6F6"/>
<path fill-rule="evenodd" clip-rule="evenodd" d="M153 182C133.445 173.038 74.0121 162.079 84.9194 112C53.6295 159.868 101.872 176.242 153 182Z" fill="#0277BD"/>
<path fill-rule="evenodd" clip-rule="evenodd" d="M92.0982 135C90.0108 130.488 88.1954 127.013 93.3195 120.112C98.4492 113.212 101.847 109.191 101.997 109.003C102.152 108.815 96.7782 117.415 93.9802 124.437C92.8532 128.144 91.9316 134.366 92.0982 135Z" fill="#29B6F6"/>
<path fill-rule="evenodd" clip-rule="evenodd" d="M229.328 176C260.451 151.532 206.47 49.9083 177 0C201.815 32.2276 303.592 171.192 229.328 176Z" fill="#D4E157"/>
<path fill-rule="evenodd" clip-rule="evenodd" d="M216.84 89C218.512 110.329 237.715 167.383 189 181.717C245.653 186.216 236.548 136.335 216.84 89Z" fill="#4CAF50"/>
<path fill-rule="evenodd" clip-rule="evenodd" d="M206 165C202.995 168.774 200.785 171.854 192.134 170.786C183.488 169.722 178.245 168.768 178.004 168.732C177.763 168.69 188.046 169.18 195.666 168.278C199.518 167.512 205.512 165.427 206 165Z" fill="#D4E157"/>
<path fill-rule="evenodd" clip-rule="evenodd" d="M174 24.2074C137.105 9.52254 75.6796 106.716 47 157C62.6212 119.538 132.612 -37.5033 174 24.2074Z" fill="#EC407A"/>
<path fill-rule="evenodd" clip-rule="evenodd" d="M104 79C121.617 66.7674 161.436 21.175 198 56.4559C173.788 4.7304 135.166 37.8829 104 79Z" fill="#F8BBD0"/>
<path fill-rule="evenodd" clip-rule="evenodd" d="M176 50C180.893 50.566 184.759 50.8212 188.002 58.8005C191.241 66.7743 192.922 71.7738 192.999 71.9958C193.081 72.2233 188.532 63.1564 184 57.1081C181.433 54.2172 176.623 50.1887 176 50Z" fill="#EC407A"/>
<path d="M10.7338 254.591H5.92854C5.80373 254.591 5.74132 254.523 5.74132 254.387V230.518H0.208019C0.0693396 230.518 0 230.45 0 230.313L0.0416038 225.634C0.0416038 225.525 0.0970755 225.47 0.208019 225.47H16.3919C16.5444 225.47 16.6207 225.525 16.6207 225.634V230.313C16.6207 230.45 16.5652 230.518 16.4543 230.518H10.8586L10.9002 254.387C10.9002 254.523 10.8447 254.591 10.7338 254.591Z" fill="#004AAD"/>
<path d="M34.7683 254.591H20.9974C20.8865 254.591 20.831 254.523 20.831 254.387L20.8726 225.634C20.8726 225.525 20.9281 225.47 21.039 225.47H34.7267C34.8376 225.47 34.8931 225.538 34.8931 225.674V230.354C34.8931 230.463 34.8376 230.518 34.7267 230.518H25.9899V237.057H34.7267C34.8376 237.057 34.8931 237.112 34.8931 237.221L34.9347 241.962C34.9347 242.071 34.8792 242.125 34.7683 242.125H25.9899V249.441H34.7683C34.8792 249.441 34.9347 249.51 34.9347 249.646V254.428C34.9347 254.537 34.8792 254.591 34.7683 254.591Z" fill="#004AAD"/>
<path d="M48.6931 255C47.1537 255 45.7461 254.619 44.4703 253.856C43.2083 253.093 42.2029 252.071 41.454 250.79C40.719 249.496 40.3515 248.059 40.3515 246.478L40.3931 233.42C40.3931 231.866 40.7537 230.463 41.4748 229.21C42.1959 227.943 43.1875 226.928 44.4495 226.165C45.7253 225.388 47.1399 225 48.6931 225C50.274 225 51.6816 225.375 52.9158 226.124C54.164 226.873 55.1555 227.888 55.8905 229.169C56.6394 230.436 57.0138 231.853 57.0138 233.42V235.341C57.0138 235.45 56.9584 235.504 56.8474 235.504H52.063C51.952 235.504 51.8966 235.45 51.8966 235.341V233.42C51.8966 232.493 51.5915 231.696 50.9813 231.029C50.3711 230.361 49.6083 230.027 48.6931 230.027C47.6807 230.027 46.9041 230.368 46.3633 231.049C45.8224 231.73 45.552 232.52 45.552 233.42V246.478C45.552 247.5 45.8571 248.338 46.4673 248.992C47.0775 249.632 47.8194 249.952 48.6931 249.952C49.6083 249.952 50.3711 249.598 50.9813 248.89C51.5915 248.168 51.8966 247.364 51.8966 246.478V244.537C51.8966 244.428 51.952 244.373 52.063 244.373H56.889C57 244.373 57.0554 244.428 57.0554 244.537V246.478C57.0554 248.045 56.681 249.475 55.9321 250.77C55.1694 252.05 54.164 253.079 52.9158 253.856C51.6677 254.619 50.2601 255 48.6931 255Z" fill="#004AAD"/>
<path d="M65.7589 254.591H60.9745C60.8774 254.591 60.8358 254.523 60.8497 254.387L65.7173 239.448L60.9329 225.634C60.9052 225.525 60.9468 225.47 61.0577 225.47H65.8421C65.9808 225.47 66.064 225.525 66.0918 225.634L68.9416 235.586L71.8331 225.634C71.8608 225.525 71.951 225.47 72.1035 225.47H76.8255C76.9365 225.47 76.9781 225.525 76.9504 225.634L72.1867 239.407L76.992 254.387C77.0474 254.523 77.0058 254.591 76.8671 254.591H72.1035C71.9787 254.591 71.8886 254.523 71.8331 254.387L68.9416 243.576L66.0086 254.387C65.9947 254.523 65.9115 254.591 65.7589 254.591Z" fill="#004AAD"/>
<path d="M86.6732 254.591H81.8471C81.7084 254.591 81.6391 254.523 81.6391 254.387L81.6807 225.634C81.6807 225.525 81.7362 225.47 81.8471 225.47H86.6316C86.7425 225.47 86.798 225.525 86.798 225.634L86.8396 254.387C86.8396 254.523 86.7841 254.591 86.6732 254.591Z" fill="#004AAD"/>
<path d="M100.556 255C99.017 255 97.6094 254.619 96.3336 253.856C95.0716 253.093 94.0661 252.071 93.3173 250.79C92.5823 249.496 92.2148 248.059 92.2148 246.478L92.2564 233.42C92.2564 231.866 92.617 230.463 93.3381 229.21C94.0592 227.943 95.0508 226.928 96.3128 226.165C97.5886 225.388 99.0031 225 100.556 225C102.137 225 103.545 225.375 104.779 226.124C106.027 226.873 107.019 227.888 107.754 229.169C108.503 230.436 108.877 231.853 108.877 233.42V235.341C108.877 235.45 108.822 235.504 108.711 235.504H103.926C103.815 235.504 103.76 235.45 103.76 235.341V233.42C103.76 232.493 103.455 231.696 102.845 231.029C102.234 230.361 101.472 230.027 100.556 230.027C99.544 230.027 98.7674 230.368 98.2265 231.049C97.6857 231.73 97.4153 232.52 97.4153 233.42V246.478C97.4153 247.5 97.7203 248.338 98.3305 248.992C98.9407 249.632 99.6827 249.952 100.556 249.952C101.472 249.952 102.234 249.598 102.845 248.89C103.455 248.168 103.76 247.364 103.76 246.478V244.537C103.76 244.428 103.815 244.373 103.926 244.373H108.752C108.863 244.373 108.919 244.428 108.919 244.537V246.478C108.919 248.045 108.544 249.475 107.795 250.77C107.033 252.05 106.027 253.079 104.779 253.856C103.531 254.619 102.123 255 100.556 255Z" fill="#004AAD"/>
<path d="M119.141 254.591H114.315C114.204 254.591 114.148 254.523 114.148 254.387L114.231 225.674C114.231 225.538 114.287 225.47 114.398 225.47H119.182C119.293 225.47 119.349 225.538 119.349 225.674V235.586L126.026 225.634C126.137 225.525 126.241 225.47 126.338 225.47H131.227C131.351 225.47 131.379 225.525 131.31 225.634L123.946 237.18L132.204 254.428C132.274 254.537 132.204 254.591 131.996 254.591H126.796C126.657 254.591 126.574 254.537 126.546 254.428L120.784 242.125L119.307 244.414V254.387C119.307 254.523 119.252 254.591 119.141 254.591Z" fill="#004AAD"/>
<path d="M156.684 255C155.172 255 153.779 254.619 152.503 253.856C151.241 253.093 150.228 252.078 149.466 250.811C148.717 249.53 148.342 248.127 148.342 246.601V244.68C148.342 244.53 148.412 244.455 148.55 244.455H153.335C153.446 244.455 153.501 244.53 153.501 244.68V246.601C153.501 247.514 153.813 248.304 154.437 248.971C155.061 249.625 155.81 249.952 156.684 249.952C157.572 249.952 158.327 249.619 158.951 248.951C159.575 248.27 159.887 247.486 159.887 246.601C159.887 245.579 159.208 244.687 157.849 243.924C157.627 243.787 157.336 243.624 156.975 243.433C156.629 243.229 156.212 242.997 155.727 242.738C155.242 242.48 154.77 242.228 154.313 241.982C153.855 241.723 153.411 241.478 152.981 241.247C151.428 240.347 150.27 239.223 149.507 237.875C148.758 236.512 148.384 234.986 148.384 233.297C148.384 231.744 148.772 230.341 149.549 229.087C150.326 227.847 151.338 226.866 152.586 226.144C153.848 225.409 155.214 225.041 156.684 225.041C158.196 225.041 159.582 225.409 160.844 226.144C162.106 226.894 163.112 227.888 163.861 229.128C164.623 230.368 165.005 231.757 165.005 233.297V236.73C165.005 236.839 164.949 236.894 164.838 236.894H160.054C159.943 236.894 159.887 236.839 159.887 236.73L159.846 233.297C159.846 232.316 159.534 231.519 158.91 230.906C158.286 230.293 157.544 229.986 156.684 229.986C155.81 229.986 155.061 230.313 154.437 230.967C153.813 231.621 153.501 232.398 153.501 233.297C153.501 234.21 153.695 234.973 154.084 235.586C154.486 236.199 155.214 236.785 156.268 237.343C156.379 237.398 156.635 237.534 157.038 237.752C157.44 237.97 157.884 238.215 158.369 238.488C158.868 238.747 159.319 238.985 159.721 239.203C160.123 239.407 160.366 239.53 160.449 239.571C161.864 240.347 162.98 241.301 163.798 242.432C164.63 243.563 165.046 244.952 165.046 246.601C165.046 248.195 164.672 249.625 163.923 250.892C163.16 252.159 162.148 253.161 160.886 253.896C159.624 254.632 158.223 255 156.684 255Z" fill="#004AAD"/>
<path d="M178.014 255C176.503 255 175.109 254.619 173.833 253.856C172.571 253.093 171.552 252.078 170.775 250.811C170.012 249.53 169.631 248.127 169.631 246.601L169.673 233.338C169.673 231.785 170.054 230.388 170.817 229.149C171.566 227.895 172.578 226.894 173.854 226.144C175.13 225.381 176.517 225 178.014 225C179.567 225 180.961 225.375 182.195 226.124C183.444 226.873 184.442 227.881 185.191 229.149C185.954 230.402 186.335 231.798 186.335 233.338L186.377 246.601C186.377 248.127 186.002 249.523 185.253 250.79C184.491 252.071 183.478 253.093 182.216 253.856C180.954 254.619 179.554 255 178.014 255ZM178.014 249.952C178.874 249.952 179.623 249.612 180.261 248.931C180.899 248.236 181.218 247.459 181.218 246.601L181.176 233.338C181.176 232.411 180.878 231.628 180.282 230.988C179.685 230.347 178.93 230.027 178.014 230.027C177.141 230.027 176.392 230.341 175.768 230.967C175.144 231.594 174.832 232.384 174.832 233.338V246.601C174.832 247.514 175.144 248.304 175.768 248.971C176.392 249.625 177.141 249.952 178.014 249.952Z" fill="#004AAD"/>
<path d="M196.723 254.591H191.939C191.8 254.591 191.731 254.523 191.731 254.387L191.814 225.634C191.814 225.525 191.87 225.47 191.981 225.47H205.627C205.765 225.47 205.835 225.525 205.835 225.634V230.354C205.835 230.463 205.779 230.518 205.668 230.518H196.932V237.016H205.668C205.779 237.016 205.835 237.084 205.835 237.221L205.876 241.962C205.876 242.071 205.807 242.125 205.668 242.125H196.932V254.387C196.932 254.523 196.862 254.591 196.723 254.591Z" fill="#004AAD"/>
<path d="M220.883 254.591H216.078C215.953 254.591 215.89 254.523 215.89 254.387V230.518H210.357C210.218 230.518 210.149 230.45 210.149 230.313L210.191 225.634C210.191 225.525 210.246 225.47 210.357 225.47H226.541C226.693 225.47 226.77 225.525 226.77 225.634V230.313C226.77 230.45 226.714 230.518 226.603 230.518H221.008L221.049 254.387C221.049 254.523 220.994 254.591 220.883 254.591Z" fill="#004AAD"/>
<path d="M240.07 254.591H234.912C234.787 254.591 234.717 254.523 234.704 254.387L229.67 225.634C229.642 225.525 229.683 225.47 229.794 225.47H234.579C234.69 225.47 234.759 225.525 234.787 225.634L237.512 244.537L240.32 225.634C240.348 225.525 240.431 225.47 240.57 225.47H244.418C244.529 225.47 244.598 225.525 244.626 225.634L247.393 244.537L250.159 225.634C250.187 225.525 250.256 225.47 250.367 225.47H255.11C255.249 225.47 255.304 225.525 255.277 225.634L250.201 254.387C250.187 254.441 250.146 254.489 250.076 254.53L249.993 254.591H244.834C244.751 254.591 244.682 254.523 244.626 254.387L242.442 239.366L240.278 254.387C240.265 254.523 240.195 254.591 240.07 254.591Z" fill="#004AAD"/>
<path d="M258.468 254.387L263.751 225.634C263.779 225.525 263.848 225.47 263.959 225.47H270.138C270.248 225.47 270.318 225.525 270.346 225.634L275.421 254.387C275.435 254.523 275.38 254.591 275.255 254.591H270.533C270.394 254.591 270.318 254.523 270.304 254.387L269.846 251.322H264.043L263.585 254.387C263.571 254.523 263.502 254.591 263.377 254.591H258.634C258.523 254.591 258.468 254.523 258.468 254.387ZM266.809 235.095L264.895 246.846H268.993L267.246 235.095L266.996 233.542L266.809 235.095Z" fill="#004AAD"/>
<path d="M285.206 254.591H280.38C280.269 254.591 280.214 254.523 280.214 254.387L280.297 225.634C280.297 225.525 280.353 225.47 280.464 225.47H289.076C290.615 225.47 292.029 225.838 293.319 226.574C294.609 227.309 295.635 228.297 296.398 229.537C297.174 230.777 297.563 232.18 297.563 233.747C297.563 234.768 297.403 235.695 297.084 236.526C296.765 237.357 296.391 238.059 295.961 238.631C295.545 239.203 295.164 239.625 294.817 239.898C296.356 241.574 297.126 243.542 297.126 245.804L297.167 254.387C297.167 254.523 297.098 254.591 296.959 254.591H292.133C292.022 254.591 291.967 254.55 291.967 254.469V245.804C291.967 244.796 291.606 243.924 290.885 243.188C290.164 242.452 289.277 242.084 288.223 242.084H285.414L285.373 254.387C285.373 254.523 285.317 254.591 285.206 254.591ZM289.076 230.477H285.414V237.057H289.076C289.949 237.057 290.726 236.737 291.405 236.097C292.099 235.456 292.445 234.673 292.445 233.747C292.445 232.861 292.113 232.098 291.447 231.458C290.781 230.804 289.991 230.477 289.076 230.477Z" fill="#004AAD"/>
<path d="M316.834 254.591H303.063C302.952 254.591 302.896 254.523 302.896 254.387L302.938 225.634C302.938 225.525 302.993 225.47 303.104 225.47H316.792C316.903 225.47 316.958 225.538 316.958 225.674V230.354C316.958 230.463 316.903 230.518 316.792 230.518H308.055V237.057H316.792C316.903 237.057 316.958 237.112 316.958 237.221L317 241.962C317 242.071 316.945 242.125 316.834 242.125H308.055V249.441H316.834C316.945 249.441 317 249.51 317 249.646V254.428C317 254.537 316.945 254.591 316.834 254.591Z" fill="#004AAD"/>
<path d="M101.139 286C100.57 286 100.045 285.86 99.5654 285.58C99.0906 285.301 98.7096 284.928 98.4227 284.464C98.1409 283.994 98 283.48 98 282.92V282.216C98 282.161 98.0261 282.134 98.0783 282.134H99.8785C99.9202 282.134 99.9411 282.161 99.9411 282.216V282.92C99.9411 283.255 100.058 283.545 100.293 283.79C100.528 284.029 100.81 284.149 101.139 284.149C101.473 284.149 101.757 284.027 101.992 283.782C102.227 283.532 102.344 283.245 102.344 282.92C102.344 282.546 102.088 282.218 101.577 281.939C101.493 281.889 101.384 281.829 101.248 281.759C101.118 281.684 100.961 281.599 100.779 281.504C100.596 281.409 100.419 281.317 100.246 281.227C100.074 281.132 99.9072 281.042 99.7454 280.957C99.161 280.627 98.7253 280.215 98.4383 279.721C98.1565 279.221 98.0157 278.662 98.0157 278.042C98.0157 277.473 98.1618 276.958 98.454 276.499C98.7462 276.044 99.1271 275.684 99.5967 275.42C100.072 275.15 100.585 275.015 101.139 275.015C101.707 275.015 102.229 275.15 102.704 275.42C103.179 275.694 103.557 276.059 103.839 276.514C104.126 276.968 104.269 277.478 104.269 278.042V279.301C104.269 279.341 104.248 279.361 104.207 279.361H102.407C102.365 279.361 102.344 279.341 102.344 279.301L102.328 278.042C102.328 277.683 102.211 277.39 101.976 277.166C101.741 276.941 101.462 276.828 101.139 276.828C100.81 276.828 100.528 276.948 100.293 277.188C100.058 277.428 99.9411 277.713 99.9411 278.042C99.9411 278.377 100.014 278.657 100.16 278.881C100.312 279.106 100.585 279.321 100.982 279.526C101.024 279.546 101.12 279.596 101.272 279.676C101.423 279.756 101.59 279.846 101.773 279.946C101.96 280.04 102.13 280.128 102.281 280.208C102.433 280.283 102.524 280.328 102.555 280.343C103.087 280.627 103.508 280.977 103.815 281.392C104.128 281.806 104.285 282.316 104.285 282.92C104.285 283.505 104.144 284.029 103.862 284.494C103.575 284.958 103.194 285.326 102.72 285.595C102.245 285.865 101.718 286 101.139 286Z" fill="#CCCCCC"/>
<path d="M116.378 286C115.809 286 115.284 285.86 114.804 285.58C114.33 285.301 113.946 284.928 113.654 284.464C113.367 283.994 113.223 283.48 113.223 282.92L113.239 278.057C113.239 277.488 113.383 276.976 113.669 276.521C113.951 276.062 114.332 275.694 114.812 275.42C115.292 275.14 115.814 275 116.378 275C116.962 275 117.486 275.137 117.951 275.412C118.42 275.687 118.796 276.057 119.078 276.521C119.365 276.981 119.508 277.493 119.508 278.057L119.524 282.92C119.524 283.48 119.383 283.992 119.101 284.456C118.814 284.926 118.433 285.301 117.959 285.58C117.484 285.86 116.957 286 116.378 286ZM116.378 284.149C116.701 284.149 116.983 284.024 117.223 283.775C117.463 283.52 117.583 283.235 117.583 282.92L117.567 278.057C117.567 277.718 117.455 277.43 117.231 277.196C117.006 276.961 116.722 276.843 116.378 276.843C116.049 276.843 115.767 276.958 115.532 277.188C115.297 277.418 115.18 277.708 115.18 278.057V282.92C115.18 283.255 115.297 283.545 115.532 283.79C115.767 284.029 116.049 284.149 116.378 284.149Z" fill="#CCCCCC"/>
<path d="M133.996 285.85H128.815C128.773 285.85 128.752 285.825 128.752 285.775L128.768 275.247C128.768 275.197 128.794 275.172 128.846 275.172H130.63C130.683 275.172 130.709 275.197 130.709 275.247L130.693 283.962H133.996C134.048 283.962 134.074 283.987 134.074 284.037V285.775C134.074 285.825 134.048 285.85 133.996 285.85Z" fill="#CCCCCC"/>
<path d="M146.089 286C145.525 286 145.003 285.86 144.523 285.58C144.043 285.301 143.66 284.926 143.373 284.456C143.091 283.982 142.95 283.465 142.95 282.905L142.981 275.232C142.981 275.192 143.002 275.172 143.044 275.172H144.844C144.886 275.172 144.907 275.192 144.907 275.232V282.905C144.907 283.25 145.022 283.545 145.251 283.79C145.481 284.029 145.76 284.149 146.089 284.149C146.433 284.149 146.72 284.029 146.95 283.79C147.179 283.545 147.294 283.25 147.294 282.905V275.232C147.294 275.192 147.315 275.172 147.357 275.172H149.157C149.198 275.172 149.219 275.192 149.219 275.232L149.251 282.905C149.251 283.47 149.11 283.989 148.828 284.464C148.541 284.933 148.16 285.308 147.685 285.588C147.21 285.863 146.678 286 146.089 286Z" fill="#CCCCCC"/>
<path d="M161.946 285.85H160.138C160.091 285.85 160.067 285.825 160.067 285.775V277.023H157.985C157.933 277.023 157.907 276.998 157.907 276.948L157.923 275.232C157.923 275.192 157.944 275.172 157.985 275.172H164.075C164.132 275.172 164.161 275.192 164.161 275.232V276.948C164.161 276.998 164.14 277.023 164.098 277.023H161.993L162.009 285.775C162.009 285.825 161.988 285.85 161.946 285.85Z" fill="#CCCCCC"/>
<path d="M174.853 285.85H173.037C172.984 285.85 172.958 285.825 172.958 285.775L172.974 275.232C172.974 275.192 172.995 275.172 173.037 275.172H174.837C174.879 275.172 174.899 275.192 174.899 275.232L174.915 285.775C174.915 285.825 174.894 285.85 174.853 285.85Z" fill="#CCCCCC"/>
<path d="M187.305 286C186.736 286 186.212 285.86 185.732 285.58C185.257 285.301 184.874 284.928 184.581 284.464C184.294 283.994 184.151 283.48 184.151 282.92L184.167 278.057C184.167 277.488 184.31 276.976 184.597 276.521C184.879 276.062 185.26 275.694 185.74 275.42C186.22 275.14 186.742 275 187.305 275C187.89 275 188.414 275.137 188.878 275.412C189.348 275.687 189.724 276.057 190.005 276.521C190.292 276.981 190.436 277.493 190.436 278.057L190.452 282.92C190.452 283.48 190.311 283.992 190.029 284.456C189.742 284.926 189.361 285.301 188.886 285.58C188.411 285.86 187.884 286 187.305 286ZM187.305 284.149C187.629 284.149 187.91 284.024 188.15 283.775C188.39 283.52 188.51 283.235 188.51 282.92L188.495 278.057C188.495 277.718 188.383 277.43 188.158 277.196C187.934 276.961 187.65 276.843 187.305 276.843C186.976 276.843 186.695 276.958 186.46 277.188C186.225 277.418 186.108 277.708 186.108 278.057V282.92C186.108 283.255 186.225 283.545 186.46 283.79C186.695 284.029 186.976 284.149 187.305 284.149Z" fill="#CCCCCC"/>
<path d="M201.425 285.85H199.82C199.737 285.85 199.695 285.815 199.695 285.745L199.679 275.292C199.679 275.212 199.721 275.172 199.805 275.172H201.253L203.961 281.219L203.883 275.292C203.883 275.212 203.929 275.172 204.023 275.172H205.612C205.675 275.172 205.706 275.212 205.706 275.292L205.722 285.76C205.722 285.82 205.696 285.85 205.644 285.85H204.235L201.456 280.2L201.574 285.73C201.574 285.81 201.524 285.85 201.425 285.85Z" fill="#CCCCCC"/>
<path d="M217.854 286C217.285 286 216.76 285.86 216.28 285.58C215.806 285.301 215.425 284.928 215.138 284.464C214.856 283.994 214.715 283.48 214.715 282.92V282.216C214.715 282.161 214.741 282.134 214.793 282.134H216.593C216.635 282.134 216.656 282.161 216.656 282.216V282.92C216.656 283.255 216.773 283.545 217.008 283.79C217.243 284.029 217.525 284.149 217.854 284.149C218.188 284.149 218.472 284.027 218.707 283.782C218.942 283.532 219.059 283.245 219.059 282.92C219.059 282.546 218.803 282.218 218.292 281.939C218.208 281.889 218.099 281.829 217.963 281.759C217.833 281.684 217.676 281.599 217.494 281.504C217.311 281.409 217.134 281.317 216.961 281.227C216.789 281.132 216.622 281.042 216.46 280.957C215.876 280.627 215.44 280.215 215.153 279.721C214.872 279.221 214.731 278.662 214.731 278.042C214.731 277.473 214.877 276.958 215.169 276.499C215.461 276.044 215.842 275.684 216.312 275.42C216.787 275.15 217.3 275.015 217.854 275.015C218.422 275.015 218.944 275.15 219.419 275.42C219.894 275.694 220.272 276.059 220.554 276.514C220.841 276.968 220.984 277.478 220.984 278.042V279.301C220.984 279.341 220.963 279.361 220.922 279.361H219.122C219.08 279.361 219.059 279.341 219.059 279.301L219.043 278.042C219.043 277.683 218.926 277.39 218.691 277.166C218.456 276.941 218.177 276.828 217.854 276.828C217.525 276.828 217.243 276.948 217.008 277.188C216.773 277.428 216.656 277.713 216.656 278.042C216.656 278.377 216.729 278.657 216.875 278.881C217.027 279.106 217.3 279.321 217.697 279.526C217.739 279.546 217.835 279.596 217.987 279.676C218.138 279.756 218.305 279.846 218.488 279.946C218.675 280.04 218.845 280.128 218.996 280.208C219.148 280.283 219.239 280.328 219.27 280.343C219.802 280.627 220.223 280.977 220.53 281.392C220.843 281.806 221 282.316 221 282.92C221 283.505 220.859 284.029 220.577 284.494C220.29 284.958 219.909 285.326 219.435 285.595C218.96 285.865 218.433 286 217.854 286Z" fill="#CCCCCC"/>
</svg>
