<svg width="42" height="42" viewBox="0 0 42 42" fill="none" xmlns="http://www.w3.org/2000/svg">
<rect width="42" height="42" rx="10" fill="#5865F2"/>
<path d="M30.8361 12.3732C29.0764 11.5656 27.2196 10.9892 25.3119 10.6584C25.2946 10.6555 25.2769 10.658 25.2611 10.6656C25.2453 10.6732 25.2322 10.6855 25.2237 10.7008C24.9845 11.1248 24.72 11.6795 24.5351 12.1137C22.4787 11.8016 20.3871 11.8016 18.3308 12.1137C18.1245 11.63 17.8912 11.1583 17.632 10.7008C17.6233 10.6857 17.6102 10.6735 17.5944 10.6659C17.5787 10.6584 17.561 10.6557 17.5438 10.6584C15.6357 10.9874 13.7784 11.5641 12.0196 12.3732C12.0045 12.3789 11.992 12.3897 11.984 12.4037C8.46628 17.6599 7.5012 22.7872 7.97441 27.85C7.97611 27.8738 7.99137 27.8975 8.01003 27.9128C10.0584 29.4301 12.3496 30.5886 14.7859 31.3389C14.8031 31.3443 14.8216 31.3441 14.8387 31.3383C14.8558 31.3325 14.8706 31.3214 14.8809 31.3067C15.4033 30.5943 15.868 29.8429 16.2683 29.0526C16.2767 29.0363 16.2795 29.0177 16.2765 28.9997C16.2734 28.9817 16.2646 28.9651 16.2514 28.9525C16.2426 28.9442 16.2322 28.9379 16.2208 28.9338C15.4901 28.653 14.7824 28.3156 14.1041 27.9247C14.0852 27.9139 14.0711 27.8963 14.0647 27.8755C14.0584 27.8546 14.0604 27.8322 14.0702 27.8127C14.0759 27.8001 14.0847 27.789 14.0956 27.7805C14.2381 27.6736 14.3806 27.5617 14.5162 27.4497C14.5282 27.4401 14.5426 27.4339 14.5579 27.4318C14.5731 27.4297 14.5886 27.4318 14.6028 27.4379C19.0448 29.4664 23.8533 29.4664 28.2411 27.4379C28.2557 27.4315 28.2718 27.4293 28.2876 27.4314C28.3035 27.4335 28.3184 27.4398 28.3309 27.4497C28.4666 27.5617 28.6091 27.6736 28.7516 27.7805C28.7631 27.7889 28.7724 27.8001 28.7786 27.813C28.7847 27.8259 28.7876 27.8401 28.7869 27.8544C28.7863 27.8687 28.7821 27.8826 28.7747 27.8948C28.7674 27.9071 28.7571 27.9173 28.7448 27.9247C28.0681 28.3192 27.3595 28.6562 26.6264 28.9321C26.6147 28.9364 26.6041 28.9431 26.5953 28.9519C26.5865 28.9607 26.5797 28.9713 26.5755 28.983C26.5716 28.9943 26.57 29.0064 26.5709 29.0183C26.5717 29.0303 26.575 29.0419 26.5806 29.0526C26.9876 29.8412 27.4541 30.5943 27.9663 31.3067C27.9766 31.3214 27.9914 31.3325 28.0085 31.3383C28.0256 31.3441 28.0441 31.3443 28.0613 31.3389C30.5016 30.591 32.7965 29.4323 34.8473 27.9128C34.8576 27.9057 34.8661 27.8963 34.8723 27.8855C34.8785 27.8746 34.8821 27.8625 34.883 27.85C35.4495 21.9968 33.9348 16.9119 30.87 12.4054C30.8669 12.3979 30.8623 12.3912 30.8565 12.3857C30.8506 12.3801 30.8437 12.3759 30.8361 12.3732ZM16.9315 24.7665C15.5933 24.7665 14.4925 23.5386 14.4925 22.0324C14.4925 20.5246 15.5729 19.2966 16.9315 19.2966C18.3002 19.2966 19.3908 20.5348 19.3705 22.0324C19.3705 23.5386 18.2901 24.7665 16.9315 24.7665ZM25.9479 24.7665C24.6114 24.7665 23.5089 23.5386 23.5089 22.0324C23.5089 20.5246 24.5894 19.2966 25.9479 19.2966C27.3167 19.2966 28.409 20.5348 28.3869 22.0324C28.3869 23.5386 27.3167 24.7665 25.9479 24.7665Z" fill="white"/>
</svg>
