<svg width="42" height="42" viewBox="0 0 42 42" fill="none" xmlns="http://www.w3.org/2000/svg">
<rect width="42" height="42" rx="10" fill="#9A52FC"/>
<path d="M21 7C12.7125 7 6 13.6529 6 21.8668C6 28.4453 10.2937 34.0018 16.2562 35.9716C17.0062 36.1017 17.2875 35.6557 17.2875 35.2654C17.2875 34.9123 17.2688 33.7416 17.2688 32.4965C13.5 33.1841 12.525 31.5859 12.225 30.7496C12.0562 30.3222 11.325 29.0028 10.6875 28.6497C10.1625 28.371 9.4125 27.6834 10.6688 27.6648C11.85 27.6462 12.6938 28.7426 12.975 29.1886C14.325 31.4372 16.4813 30.8054 17.3438 30.4151C17.475 29.4488 17.8687 28.7984 18.3 28.4267C14.9625 28.055 11.475 26.7728 11.475 21.0863C11.475 19.4695 12.0563 18.1315 13.0125 17.0908C12.8625 16.7191 12.3375 15.1953 13.1625 13.1511C13.1625 13.1511 14.4188 12.7609 17.2875 14.675C18.4875 14.3405 19.7625 14.1732 21.0375 14.1732C22.3125 14.1732 23.5875 14.3405 24.7875 14.675C27.6563 12.7423 28.9125 13.1511 28.9125 13.1511C29.7375 15.1953 29.2125 16.7191 29.0625 17.0908C30.0188 18.1315 30.6 19.4509 30.6 21.0863C30.6 26.7914 27.0938 28.055 23.7563 28.4267C24.3 28.8913 24.7688 29.7833 24.7688 31.1771C24.7688 33.1655 24.75 34.7637 24.75 35.2654C24.75 35.6557 25.0313 36.1203 25.7813 35.9716C28.7592 34.9755 31.3469 33.0788 33.18 30.5485C35.0132 28.0182 35.9995 24.9818 36 21.8668C36 13.6529 29.2875 7 21 7Z" fill="white"/>
</svg>
