<svg width="42" height="42" viewBox="0 0 42 42" fill="none" xmlns="http://www.w3.org/2000/svg">
<rect width="42" height="42" rx="10" fill="#F7E4F8"/>
<path d="M20.5 8C16.8364 8 16.3758 8.01688 14.9363 8.081C13.4969 8.1485 12.5164 8.37462 11.6575 8.70875C10.7565 9.04763 9.94045 9.57921 9.26631 10.2663C8.57963 10.9408 8.04812 11.7568 7.70875 12.6575C7.37462 13.5148 7.14681 14.4969 7.081 15.9312C7.01688 17.3741 7 17.8331 7 21.5017C7 25.1669 7.01688 25.6259 7.081 27.0654C7.1485 28.5031 7.37462 29.4836 7.70875 30.3425C8.05469 31.2301 8.51538 31.9827 9.26631 32.7337C10.0156 33.4846 10.7682 33.947 11.6558 34.2912C12.5164 34.6254 13.4952 34.8532 14.9329 34.919C16.3741 34.9831 16.8331 35 20.5 35C24.1669 35 24.6243 34.9831 26.0654 34.919C27.5014 34.8515 28.4853 34.6254 29.3442 34.2912C30.2446 33.9522 31.0601 33.4206 31.7337 32.7337C32.4846 31.9827 32.9453 31.2301 33.2912 30.3425C33.6237 29.4836 33.8515 28.5031 33.919 27.0654C33.9831 25.6259 34 25.1669 34 21.5C34 17.8331 33.9831 17.3741 33.919 15.9329C33.8515 14.4969 33.6237 13.5148 33.2912 12.6575C32.9519 11.7568 32.4204 10.9408 31.7337 10.2663C31.0598 9.57895 30.2436 9.04734 29.3425 8.70875C28.4819 8.37462 27.4997 8.14681 26.0637 8.081C24.6226 8.01688 24.1653 8 20.4966 8H20.5017H20.5ZM19.2901 10.4334H20.5017C24.1062 10.4334 24.5331 10.4452 25.9557 10.511C27.2719 10.5701 27.9874 10.7911 28.4633 10.9751C29.0927 11.2198 29.5433 11.5134 30.0158 11.9859C30.4883 12.4584 30.7803 12.9073 31.0249 13.5384C31.2106 14.0126 31.4299 14.7281 31.489 16.0443C31.5548 17.4669 31.5683 17.8938 31.5683 21.4966C31.5683 25.0994 31.5548 25.5281 31.489 26.9506C31.4299 28.2669 31.2089 28.9807 31.0249 29.4566C30.8085 30.0427 30.463 30.5727 30.0141 31.0074C29.5416 31.4799 29.0928 31.7718 28.4616 32.0165C27.9891 32.2021 27.2736 32.4215 25.9557 32.4823C24.5331 32.5464 24.1062 32.5616 20.5017 32.5616C16.8972 32.5616 16.4686 32.5464 15.046 32.4823C13.7298 32.4215 13.0159 32.2021 12.5401 32.0165C11.9537 31.8004 11.4232 31.4555 10.9876 31.0074C10.5383 30.5721 10.1923 30.0415 9.97506 29.4549C9.79113 28.9807 9.57006 28.2652 9.511 26.9489C9.44688 25.5264 9.43338 25.0994 9.43338 21.4932C9.43338 17.8887 9.44688 17.4635 9.511 16.0409C9.57175 14.7247 9.79113 14.0092 9.97675 13.5333C10.2214 12.9039 10.5151 12.4533 10.9876 11.9808C11.4601 11.5083 11.9089 11.2164 12.5401 10.9717C13.0159 10.7861 13.7298 10.5667 15.046 10.5059C16.2914 10.4486 16.774 10.4317 19.2901 10.43V10.4334ZM27.7073 12.6744C27.4946 12.6744 27.2839 12.7163 27.0874 12.7977C26.8908 12.8791 26.7122 12.9984 26.5618 13.1489C26.4114 13.2993 26.292 13.4779 26.2106 13.6744C26.1292 13.871 26.0873 14.0816 26.0873 14.2944C26.0873 14.5071 26.1292 14.7178 26.2106 14.9143C26.292 15.1109 26.4114 15.2895 26.5618 15.4399C26.7122 15.5903 26.8908 15.7096 27.0874 15.7911C27.2839 15.8725 27.4946 15.9144 27.7073 15.9144C28.137 15.9144 28.549 15.7437 28.8528 15.4399C29.1566 15.1361 29.3273 14.724 29.3273 14.2944C29.3273 13.8647 29.1566 13.4527 28.8528 13.1489C28.549 12.8451 28.137 12.6744 27.7073 12.6744ZM20.5017 14.5677C19.5821 14.5534 18.6689 14.7221 17.8152 15.0641C16.9614 15.4061 16.1842 15.9145 15.5289 16.5597C14.8735 17.2049 14.3531 17.9741 13.9978 18.8224C13.6425 19.6707 13.4596 20.5812 13.4596 21.5008C13.4596 22.4205 13.6425 23.331 13.9978 24.1793C14.3531 25.0276 14.8735 25.7968 15.5289 26.442C16.1842 27.0872 16.9614 27.5956 17.8152 27.9376C18.6689 28.2796 19.5821 28.4483 20.5017 28.4339C22.3217 28.4055 24.0576 27.6626 25.3346 26.3655C26.6117 25.0684 27.3275 23.3211 27.3275 21.5008C27.3275 19.6806 26.6117 17.9333 25.3346 16.6362C24.0576 15.3391 22.3217 14.5961 20.5017 14.5677ZM20.5017 16.9994C21.6953 16.9994 22.84 17.4736 23.6841 18.3176C24.5281 19.1616 25.0023 20.3064 25.0023 21.5C25.0023 22.6936 24.5281 23.8384 23.6841 24.6824C22.84 25.5264 21.6953 26.0006 20.5017 26.0006C19.3081 26.0006 18.1633 25.5264 17.3193 24.6824C16.4753 23.8384 16.0011 22.6936 16.0011 21.5C16.0011 20.3064 16.4753 19.1616 17.3193 18.3176C18.1633 17.4736 19.3081 16.9994 20.5017 16.9994Z" fill="url(#paint0_radial_1561_16155)"/>
<path d="M20.5 8C16.8364 8 16.3758 8.01688 14.9363 8.081C13.4969 8.1485 12.5164 8.37462 11.6575 8.70875C10.7565 9.04763 9.94045 9.57921 9.26631 10.2663C8.57963 10.9408 8.04812 11.7568 7.70875 12.6575C7.37462 13.5148 7.14681 14.4969 7.081 15.9312C7.01688 17.3741 7 17.8331 7 21.5017C7 25.1669 7.01688 25.6259 7.081 27.0654C7.1485 28.5031 7.37462 29.4836 7.70875 30.3425C8.05469 31.2301 8.51538 31.9827 9.26631 32.7337C10.0156 33.4846 10.7682 33.947 11.6558 34.2912C12.5164 34.6254 13.4952 34.8532 14.9329 34.919C16.3741 34.9831 16.8331 35 20.5 35C24.1669 35 24.6243 34.9831 26.0654 34.919C27.5014 34.8515 28.4853 34.6254 29.3442 34.2912C30.2446 33.9522 31.0601 33.4206 31.7337 32.7337C32.4846 31.9827 32.9453 31.2301 33.2912 30.3425C33.6237 29.4836 33.8515 28.5031 33.919 27.0654C33.9831 25.6259 34 25.1669 34 21.5C34 17.8331 33.9831 17.3741 33.919 15.9329C33.8515 14.4969 33.6237 13.5148 33.2912 12.6575C32.9519 11.7568 32.4204 10.9408 31.7337 10.2663C31.0598 9.57895 30.2436 9.04734 29.3425 8.70875C28.4819 8.37462 27.4997 8.14681 26.0637 8.081C24.6226 8.01688 24.1653 8 20.4966 8H20.5017H20.5ZM19.2901 10.4334H20.5017C24.1062 10.4334 24.5331 10.4452 25.9557 10.511C27.2719 10.5701 27.9874 10.7911 28.4633 10.9751C29.0927 11.2198 29.5433 11.5134 30.0158 11.9859C30.4883 12.4584 30.7803 12.9073 31.0249 13.5384C31.2106 14.0126 31.4299 14.7281 31.489 16.0443C31.5548 17.4669 31.5683 17.8938 31.5683 21.4966C31.5683 25.0994 31.5548 25.5281 31.489 26.9506C31.4299 28.2669 31.2089 28.9807 31.0249 29.4566C30.8085 30.0427 30.463 30.5727 30.0141 31.0074C29.5416 31.4799 29.0928 31.7718 28.4616 32.0165C27.9891 32.2021 27.2736 32.4215 25.9557 32.4823C24.5331 32.5464 24.1062 32.5616 20.5017 32.5616C16.8972 32.5616 16.4686 32.5464 15.046 32.4823C13.7298 32.4215 13.0159 32.2021 12.5401 32.0165C11.9537 31.8004 11.4232 31.4555 10.9876 31.0074C10.5383 30.5721 10.1923 30.0415 9.97506 29.4549C9.79113 28.9807 9.57006 28.2652 9.511 26.9489C9.44688 25.5264 9.43338 25.0994 9.43338 21.4932C9.43338 17.8887 9.44688 17.4635 9.511 16.0409C9.57175 14.7247 9.79113 14.0092 9.97675 13.5333C10.2214 12.9039 10.5151 12.4533 10.9876 11.9808C11.4601 11.5083 11.9089 11.2164 12.5401 10.9717C13.0159 10.7861 13.7298 10.5667 15.046 10.5059C16.2914 10.4486 16.774 10.4317 19.2901 10.43V10.4334ZM27.7073 12.6744C27.4946 12.6744 27.2839 12.7163 27.0874 12.7977C26.8908 12.8791 26.7122 12.9984 26.5618 13.1489C26.4114 13.2993 26.292 13.4779 26.2106 13.6744C26.1292 13.871 26.0873 14.0816 26.0873 14.2944C26.0873 14.5071 26.1292 14.7178 26.2106 14.9143C26.292 15.1109 26.4114 15.2895 26.5618 15.4399C26.7122 15.5903 26.8908 15.7096 27.0874 15.7911C27.2839 15.8725 27.4946 15.9144 27.7073 15.9144C28.137 15.9144 28.549 15.7437 28.8528 15.4399C29.1566 15.1361 29.3273 14.724 29.3273 14.2944C29.3273 13.8647 29.1566 13.4527 28.8528 13.1489C28.549 12.8451 28.137 12.6744 27.7073 12.6744ZM20.5017 14.5677C19.5821 14.5534 18.6689 14.7221 17.8152 15.0641C16.9614 15.4061 16.1842 15.9145 15.5289 16.5597C14.8735 17.2049 14.3531 17.9741 13.9978 18.8224C13.6425 19.6707 13.4596 20.5812 13.4596 21.5008C13.4596 22.4205 13.6425 23.331 13.9978 24.1793C14.3531 25.0276 14.8735 25.7968 15.5289 26.442C16.1842 27.0872 16.9614 27.5956 17.8152 27.9376C18.6689 28.2796 19.5821 28.4483 20.5017 28.4339C22.3217 28.4055 24.0576 27.6626 25.3346 26.3655C26.6117 25.0684 27.3275 23.3211 27.3275 21.5008C27.3275 19.6806 26.6117 17.9333 25.3346 16.6362C24.0576 15.3391 22.3217 14.5961 20.5017 14.5677ZM20.5017 16.9994C21.6953 16.9994 22.84 17.4736 23.6841 18.3176C24.5281 19.1616 25.0023 20.3064 25.0023 21.5C25.0023 22.6936 24.5281 23.8384 23.6841 24.6824C22.84 25.5264 21.6953 26.0006 20.5017 26.0006C19.3081 26.0006 18.1633 25.5264 17.3193 24.6824C16.4753 23.8384 16.0011 22.6936 16.0011 21.5C16.0011 20.3064 16.4753 19.1616 17.3193 18.3176C18.1633 17.4736 19.3081 16.9994 20.5017 16.9994Z" fill="url(#paint1_radial_1561_16155)"/>
<defs>
<radialGradient id="paint0_radial_1561_16155" cx="0" cy="0" r="1" gradientUnits="userSpaceOnUse" gradientTransform="translate(29.815 38.645) rotate(-115.776) scale(36.8195 54.7648)">
<stop offset="0.24392" stop-color="#FF1B90"/>
<stop offset="0.436673" stop-color="#F80261"/>
<stop offset="0.688476" stop-color="#ED00C0"/>
<stop offset="0.776787" stop-color="#C500E9"/>
<stop offset="0.893155" stop-color="#7017FF"/>
</radialGradient>
<radialGradient id="paint1_radial_1561_16155" cx="0" cy="0" r="1" gradientUnits="userSpaceOnUse" gradientTransform="translate(16.7875 34.0685) rotate(-57.4396) scale(15.9535 16.5939)">
<stop stop-color="#FFD600"/>
<stop offset="0.484375" stop-color="#FF6930"/>
<stop offset="0.734375" stop-color="#FE3B36"/>
<stop offset="1" stop-color="#FE3B36" stop-opacity="0"/>
</radialGradient>
</defs>
</svg>
