<svg width="42" height="42" viewBox="0 0 42 42" fill="none" xmlns="http://www.w3.org/2000/svg">
<rect width="42" height="42" rx="10" fill="#0A66C2"/>
<path d="M13.9022 34V16.4578H8.32883V34H13.9022ZM11.1162 14.0613C13.0598 14.0613 14.2695 12.7143 14.2695 11.0309C14.2333 9.30964 13.0598 8 11.1531 8C9.24669 8 8 9.30967 8 11.0309C8 12.7144 9.20946 14.0613 11.0799 14.0613H11.1161H11.1162ZM16.9871 34H22.5604V24.2036C22.5604 23.6793 22.5966 23.1556 22.7438 22.7808C23.1467 21.7333 24.0638 20.6483 25.6034 20.6483C27.6202 20.6483 28.427 22.257 28.427 24.6152V33.9999H34V23.9414C34 18.5531 31.2504 16.046 27.5834 16.046C24.5768 16.046 23.2567 17.8042 22.5233 19.0017H22.5606V16.4575H16.9872C17.0603 18.1035 16.9872 33.9996 16.9872 33.9996L16.9871 34Z" fill="white"/>
</svg>
