<svg width="42" height="42" viewBox="0 0 42 42" fill="none" xmlns="http://www.w3.org/2000/svg">
<rect width="42" height="42" rx="10" fill="#1D9BF0"/>
<path d="M17.0114 32.1261C26.3587 32.1261 31.472 24.3811 31.472 17.6763C31.472 17.4596 31.472 17.2398 31.4627 17.023C32.4582 16.3024 33.3174 15.4102 34 14.3882C33.0701 14.7982 32.0847 15.0684 31.0757 15.1901C32.1385 14.5548 32.9345 13.5553 33.3158 12.3773C32.3172 12.9688 31.2243 13.3841 30.0849 13.6049C29.3189 12.7891 28.3052 12.2486 27.201 12.0673C26.0967 11.8859 24.9634 12.0737 23.9767 12.6016C22.99 13.1296 22.2049 13.9681 21.743 14.9874C21.2811 16.0067 21.1682 17.1499 21.4219 18.2398C19.4012 18.1385 17.4244 17.6136 15.6197 16.6991C13.815 15.7846 12.2227 14.501 10.946 12.9315C10.2979 14.0509 10.1001 15.375 10.3928 16.6349C10.6855 17.8948 11.4467 18.9961 12.5219 19.7152C11.7162 19.6878 10.9282 19.4714 10.2215 19.0835V19.1532C10.2229 20.3258 10.6291 21.462 11.3715 22.3697C12.1139 23.2774 13.147 23.901 14.296 24.1349C13.8599 24.2551 13.4093 24.315 12.9569 24.313C12.638 24.3139 12.3197 24.2844 12.0064 24.2247C12.3312 25.2342 12.9636 26.1167 13.815 26.7488C14.6664 27.3809 15.6942 27.7309 16.7544 27.7497C14.9533 29.1643 12.7284 29.9316 10.4382 29.9279C10.0347 29.9296 9.63139 29.9063 9.23071 29.8582C11.5552 31.3401 14.2547 32.127 17.0114 32.1261Z" fill="white"/>
</svg>
