<svg width="42" height="42" viewBox="0 0 42 42" fill="none" xmlns="http://www.w3.org/2000/svg">
<rect width="42" height="42" rx="10" fill="#F8D8D6"/>
<path d="M21.0837 12H21.2283C22.5642 12.0049 29.3327 12.0536 31.1577 12.5444C31.7094 12.6942 32.2121 12.9861 32.6157 13.3911C33.0192 13.7961 33.3094 14.2998 33.4572 14.8521C33.6214 15.4696 33.7367 16.287 33.8147 17.1304L33.831 17.2995L33.8667 17.722L33.8797 17.891C33.9854 19.3763 33.9984 20.7674 34 21.0713V21.1932C33.9984 21.5085 33.9837 22.9938 33.8667 24.5409L33.8537 24.7115L33.8391 24.8806C33.7579 25.8101 33.6376 26.7332 33.4572 27.4125C33.3098 27.9649 33.0198 28.4689 32.6162 28.8739C32.2126 29.279 31.7096 29.5708 31.1577 29.7201C29.2726 30.2271 22.1075 30.2629 21.1146 30.2645H20.8838C20.3816 30.2645 18.3048 30.2548 16.1271 30.18L15.8509 30.1703L15.7095 30.1638L15.4316 30.1524L15.1537 30.141C13.3498 30.0614 11.6321 29.933 10.8407 29.7185C10.2889 29.5693 9.78609 29.2777 9.38251 28.873C8.97893 28.4683 8.68879 27.9646 8.54116 27.4125C8.36077 26.7348 8.24052 25.8101 8.15926 24.8806L8.14626 24.7099L8.13326 24.5409C8.05306 23.4397 8.00861 22.3363 8 21.2322L8 21.0323C8.00325 20.6829 8.01625 19.4755 8.10401 18.1429L8.11538 17.9755L8.12026 17.891L8.13326 17.722L8.16901 17.2995L8.18526 17.1304C8.26327 16.287 8.37865 15.468 8.54278 14.8521C8.69017 14.2996 8.9802 13.7956 9.3838 13.3906C9.78739 12.9855 10.2904 12.6937 10.8423 12.5444C11.6337 12.3331 13.3515 12.2031 15.1553 12.1219L15.4316 12.1105L15.7111 12.1008L15.8509 12.0959L16.1288 12.0845C17.6754 12.0347 19.2226 12.0071 20.77 12.0016H21.0837V12ZM18.4007 17.2166V25.0463L25.1562 21.1331L18.4007 17.2166Z" fill="#FE0000"/>
</svg>
