<svg width="22" height="22" viewBox="0 0 22 22" fill="none" xmlns="http://www.w3.org/2000/svg">
<g clip-path="url(#clip0_1499_16114)">
<path d="M10.9742 0.152832H12C12.3421 0.152832 15.3666 0.152832 18.0007 0.152832C20.2099 0.152832 22 1.94349 22 4.15263C22 6.54757 22 9.18771 22 9.5V11C22 11.3421 22 15.0947 22 18.154C22 20.3632 20.2084 22.1528 17.9993 22.1528C17.0357 22.1528 16.219 22.1528 16 22.1528H14.1171C13.8767 22.1184 13.7564 21.7569 13.7564 21.0683V18.073C13.7564 17.1434 13.4988 16.4549 12.9836 16.0073C14.4949 15.8351 15.7057 15.3704 16.6159 14.6129C17.5261 13.8555 17.9813 12.5128 17.9813 10.5848C17.9813 9.44861 17.6034 8.46739 16.8478 7.6411C17.2256 6.74595 17.1913 5.76473 16.7447 4.69743C16.1265 4.49086 15.1304 4.86958 13.7564 5.83358C12.8634 5.59258 11.936 5.47208 10.9742 5.47208C10.0125 5.47208 9.10226 5.59258 8.24356 5.83358C7.62529 5.42044 7.06713 5.11919 6.56909 4.92983C6.07104 4.74047 5.71897 4.663 5.51288 4.69743H5.20375C4.79157 5.76473 4.75722 6.74595 5.1007 7.6411C4.34504 8.46739 3.96721 9.44861 3.96721 10.5848C3.96721 12.4783 4.43091 13.8125 5.35831 14.5871C6.28571 15.3618 7.4879 15.8351 8.96487 16.0073C8.58704 16.3516 8.36378 16.8508 8.29508 17.5049C6.85246 18.1247 5.78767 17.8148 5.1007 16.5754C4.68852 15.8868 4.12178 15.5081 3.40047 15.4392C3.33177 15.4392 3.25449 15.4478 3.16862 15.465C3.08275 15.4823 2.98829 15.5425 2.88525 15.6458C2.7822 15.7491 2.91959 15.904 3.29742 16.1106C3.81265 16.3516 4.22482 16.8852 4.53396 17.7115C4.56831 17.7804 4.60265 17.8578 4.637 17.9439C4.67135 18.03 4.78298 18.1935 4.9719 18.4345C5.16081 18.6755 5.38407 18.8563 5.64169 18.9768C5.8993 19.0973 6.25137 19.2092 6.69789 19.3125C7.14442 19.4157 7.65964 19.3813 8.24356 19.2092V21.0683C8.24356 21.7569 8.10617 22.1184 7.83138 22.1528H5.64169C5.44358 22.1528 4.79321 22.1528 4.00074 22.1528C1.7916 22.1528 0 20.3631 0 18.1539C0 15.2728 0 11.8348 0 11.5V9.5C0 9.18771 3.93687e-06 6.54757 7.60941e-06 4.15263C1.0997e-05 1.9435 1.7895 0.152842 3.99863 0.152839C6.98691 0.152836 10.6159 0.152832 10.9742 0.152832Z" fill="#8A8A8A"/>
</g>
<defs>
<clipPath id="clip0_1499_16114">
<rect width="22" height="22" fill="white"/>
</clipPath>
</defs>
</svg>
